<?xml version="1.0" encoding="UTF-8" standalone="no"?>
<!DOCTYPE svg PUBLIC "-//W3C//DTD SVG 1.1//EN"
 "http://www.w3.org/Graphics/SVG/1.1/DTD/svg11.dtd">
<!-- Generated by graphviz version 2.40.1 (20161225.0304)
 -->
<!-- Title: %0 Pages: 1 -->
<svg width="552pt" height="166pt"
 viewBox="0.00 0.00 551.51 165.80" xmlns="http://www.w3.org/2000/svg" xmlns:xlink="http://www.w3.org/1999/xlink">
<g id="graph0" class="graph" transform="scale(1 1) rotate(0) translate(4 161.8)">
<title>%0</title>
<polygon fill="#ffffff" stroke="transparent" points="-4,4 -4,-161.8 547.5101,-161.8 547.5101,4 -4,4"/>
<!-- founds -->
<g id="node1" class="node">
<title>founds</title>
<ellipse fill="none" stroke="#000000" cx="37.3208" cy="-18" rx="37.1424" ry="18"/>
<text text-anchor="middle" x="37.3208" y="-13.8" font-family="Times,serif" font-size="14.00" fill="#000000">founds</text>
</g>
<!-- foundl -->
<g id="node2" class="node">
<title>foundl</title>
<ellipse fill="none" stroke="#000000" cx="205.997" cy="-91" rx="36.4994" ry="18"/>
<text text-anchor="middle" x="205.997" y="-86.8" font-family="Times,serif" font-size="14.00" fill="#000000">foundl</text>
</g>
<!-- founds&#45;&gt;foundl -->
<g id="edge1" class="edge">
<title>founds&#45;&gt;foundl</title>
<path fill="none" stroke="#000000" d="M65.1742,-30.0545C93.6669,-42.3856 138.0778,-61.6058 169.3952,-75.1594"/>
<polygon fill="#000000" stroke="#000000" points="168.0943,-78.4101 178.6619,-79.1698 170.8746,-71.9859 168.0943,-78.4101"/>
<text text-anchor="middle" x="122.1949" y="-71.2" font-family="Times,serif" font-size="14.00" fill="#000000">G__11538</text>
</g>
<!-- start -->
<g id="node3" class="node">
<title>start</title>
<ellipse fill="#000000" stroke="#000000" cx="513.9568" cy="-114" rx="9" ry="9"/>
</g>
<!-- founds&#45;&gt;start -->
<g id="edge2" class="edge">
<title>founds&#45;&gt;start</title>
<path fill="none" stroke="#000000" d="M74.2061,-15.1085C80.3596,-14.6905 86.6789,-14.3008 92.6416,-14 233.6965,-6.884 276.5245,13.598 409.8502,-33 445.2063,-45.3571 459.1058,-41.9585 486.9568,-67 495.6929,-74.8549 502.3296,-86.2263 506.8368,-95.8163"/>
<polygon fill="#000000" stroke="#000000" points="503.7335,-97.4604 510.8904,-105.2726 510.1673,-94.7024 503.7335,-97.4604"/>
<text text-anchor="middle" x="289.7992" y="-13.2" font-family="Times,serif" font-size="14.00" fill="#000000">G__11539</text>
</g>
<!-- foundl&#45;&gt;foundl -->
<g id="edge7" class="edge">
<title>foundl&#45;&gt;foundl</title>
<path fill="none" stroke="#000000" d="M191.583,-107.6641C188.3798,-117.625 193.1845,-127 205.997,-127 214.205,-127 219.1266,-123.1525 220.7618,-117.7682"/>
<polygon fill="#000000" stroke="#000000" points="224.256,-117.5366 220.4111,-107.6641 217.2602,-117.7795 224.256,-117.5366"/>
<text text-anchor="middle" x="205.997" y="-131.2" font-family="Times,serif" font-size="14.00" fill="#000000">G__11544</text>
</g>
<!-- foundl&#45;&gt;start -->
<g id="edge8" class="edge">
<title>foundl&#45;&gt;start</title>
<path fill="none" stroke="#000000" d="M239.7514,-97.9292C246.5146,-99.1177 253.5877,-100.2192 260.2459,-101 347.3187,-111.2115 452.1356,-113.4029 494.645,-113.8724"/>
<polygon fill="#000000" stroke="#000000" points="494.6733,-117.3727 504.7044,-113.963 494.7363,-110.373 494.6733,-117.3727"/>
<text text-anchor="middle" x="373.6013" y="-115.2" font-family="Times,serif" font-size="14.00" fill="#000000">G__11545</text>
</g>
<!-- foundi -->
<g id="node4" class="node">
<title>foundi</title>
<ellipse fill="none" stroke="#000000" cx="373.6013" cy="-60" rx="36.4994" ry="18"/>
<text text-anchor="middle" x="373.6013" y="-55.8" font-family="Times,serif" font-size="14.00" fill="#000000">foundi</text>
</g>
<!-- foundl&#45;&gt;foundi -->
<g id="edge6" class="edge">
<title>foundl&#45;&gt;foundi</title>
<path fill="none" stroke="#000000" d="M221.3936,-74.6407C231.4306,-65.215 245.3894,-54.2597 260.2459,-49.2 283.5089,-41.2772 310.9087,-43.5956 332.9421,-48.0773"/>
<polygon fill="#000000" stroke="#000000" points="332.4441,-51.5528 342.9689,-50.3373 333.9833,-44.7241 332.4441,-51.5528"/>
<text text-anchor="middle" x="289.7992" y="-53.2" font-family="Times,serif" font-size="14.00" fill="#000000">G__11543</text>
</g>
<!-- start&#45;&gt;foundl -->
<g id="edge9" class="edge">
<title>start&#45;&gt;foundl</title>
<path fill="none" stroke="#000000" d="M506.2319,-118.7071C500.9927,-121.6467 493.8003,-125.2033 486.9568,-127 453.7408,-135.7203 444.1738,-130.8883 409.8502,-132 343.061,-134.1632 323.6876,-137.991 260.2459,-117 253.5174,-114.7737 246.5442,-111.9008 239.9288,-108.8805"/>
<polygon fill="#000000" stroke="#000000" points="241.0949,-105.5588 230.5627,-104.4081 238.0785,-111.8756 241.0949,-105.5588"/>
<text text-anchor="middle" x="373.6013" y="-137.2" font-family="Times,serif" font-size="14.00" fill="#000000">G__11546</text>
</g>
<!-- start&#45;&gt;start -->
<g id="edge10" class="edge">
<title>start&#45;&gt;start</title>
<path fill="none" stroke="#000000" d="M507.1585,-120.3721C500.5344,-129.5698 502.8005,-141 513.9568,-141 521.2781,-141 524.7707,-136.0774 524.4347,-130.0937"/>
<polygon fill="#000000" stroke="#000000" points="527.5684,-128.4857 520.7551,-120.3721 521.0217,-130.9636 527.5684,-128.4857"/>
<text text-anchor="middle" x="513.9568" y="-145.2" font-family="Times,serif" font-size="14.00" fill="#000000">G__11547</text>
</g>
<!-- foundi&#45;&gt;founds -->
<g id="edge3" class="edge">
<title>foundi&#45;&gt;founds</title>
<path fill="none" stroke="#000000" d="M346.7722,-47.814C338.1793,-44.4029 328.5146,-41.0665 319.3525,-39 238.4162,-20.7454 141.4444,-17.44 84.8719,-17.3021"/>
<polygon fill="#000000" stroke="#000000" points="84.7888,-13.8021 74.7917,-17.3103 84.7946,-20.8021 84.7888,-13.8021"/>
<text text-anchor="middle" x="205.997" y="-30.2" font-family="Times,serif" font-size="14.00" fill="#000000">G__11540</text>
</g>
<!-- foundi&#45;&gt;foundl -->
<g id="edge4" class="edge">
<title>foundi&#45;&gt;foundl</title>
<path fill="none" stroke="#000000" d="M339.6123,-66.2866C313.852,-71.0512 278.2342,-77.639 250.2506,-82.8149"/>
<polygon fill="#000000" stroke="#000000" points="249.5153,-79.3914 240.3187,-84.6519 250.7885,-86.2747 249.5153,-79.3914"/>
<text text-anchor="middle" x="289.7992" y="-84.2" font-family="Times,serif" font-size="14.00" fill="#000000">G__11541</text>
</g>
<!-- foundi&#45;&gt;start -->
<g id="edge5" class="edge">
<title>foundi&#45;&gt;start</title>
<path fill="none" stroke="#000000" d="M407.9254,-65.9929C431.1318,-70.9309 461.9796,-79.2598 486.9568,-92.2 491.4102,-94.5072 495.8224,-97.6192 499.7493,-100.7686"/>
<polygon fill="#000000" stroke="#000000" points="497.5569,-103.5004 507.3981,-107.4247 502.1521,-98.2198 497.5569,-103.5004"/>
<text text-anchor="middle" x="457.4035" y="-96.2" font-family="Times,serif" font-size="14.00" fill="#000000">G__11542</text>
</g>
</g>
</svg>
